<mxfile host="app.diagrams.net" modified="2024-05-06T10:24:11.263Z" agent="Mozilla/5.0 (Windows NT 10.0; Win64; x64) AppleWebKit/537.36 (KHTML, like Gecko) Chrome/123.0.0.0 Safari/537.36 OPR/109.0.0.0" version="24.2.7" etag="Q3ITJ83XSaqujLVzcXkZ" type="github">
  <diagram name="Strona-1" id="kmJPJM0mgqiln_hZqfvA">
    <mxGraphModel>
      <root>
        <mxCell id="0" />
        <mxCell id="1" parent="0" />
      </root>
    </mxGraphModel>
  </diagram>
</mxfile>
